<svg viewBox="0 0 32 32" role="presentation" xmlns="http://www.w3.org/2000/svg">
    <path d="M21,15.97c0,0.14-0.05,0.25-0.15,0.35l-7,7c-0.1,0.1-0.22,0.15-0.35,0.15c-0.14,0-0.25-0.05-0.35-0.15 c-0.1-0.1-0.15-0.22-0.15-0.35c0-0.13,0.05-0.25,0.15-0.35l6.64-6.65l-6.64-6.65C13.05,9.22,13,9.1,13,8.97 c0-0.14,0.05-0.25,0.15-0.35c0.1-0.1,0.22-0.15,0.35-0.15c0.14,0,0.25,0.05,0.35,0.15l7,7C20.95,15.72,21,15.83,21,15.97z"></path>
    <path d="M21.5,15.97c0,0.28-0.1,0.52-0.29,0.71l-7,7c-0.19,0.19-0.43,0.29-0.71,0.29c-0.14,0-0.26-0.03-0.38-0.08 c-0.12-0.05-0.23-0.13-0.32-0.22c-0.09-0.09-0.16-0.2-0.22-0.32c-0.05-0.12-0.08-0.25-0.08-0.38c0-0.13,0.02-0.27,0.07-0.39 c0.05-0.12,0.12-0.23,0.21-0.32l6.3-6.29l-6.3-6.29c-0.09-0.09-0.17-0.2-0.21-0.32C12.52,9.23,12.5,9.1,12.5,8.97 c0-0.13,0.03-0.26,0.08-0.38c0.05-0.12,0.13-0.23,0.22-0.32c0.09-0.09,0.2-0.16,0.32-0.22C13.24,8,13.36,7.97,13.5,7.97 c0.28,0,0.52,0.1,0.71,0.29l7,7C21.4,15.45,21.5,15.69,21.5,15.97z"></path>
</svg>
