<?xml version="1.0" encoding="utf-8"?>
<!-- Generator: Adobe Illustrator 25.4.0, SVG Export Plug-In . SVG Version: 6.00 Build 0)  -->
<svg version="1.1" id="Capa_1" xmlns="http://www.w3.org/2000/svg" xmlns:xlink="http://www.w3.org/1999/xlink" x="0px" y="0px"
	 viewBox="0 0 36 36" style="enable-background:new 0 0 36 36;" xml:space="preserve">
<path d="M30,6l-1.6,1.2c0,0-2,1.5-4.8,2.9C20.7,11.6,17,13,13.7,13H4v9.1l0,0.2l2,7L6.2,30h6.1L12,28.7L10.3,23h3.4
	c3.2,0,6.9,1.4,9.8,2.9s4.9,2.9,4.9,2.9L30,30v-9.2c1.2-0.4,2-1.5,2-2.8s-0.8-2.4-2-2.8V6z M28,9.7v16.5c-0.8-0.6-1.5-1.1-3.6-2.1
	c-2.9-1.5-6.7-3-10.4-3.1v-6c3.7-0.1,7.5-1.6,10.5-3.1C26.5,10.8,27.2,10.3,28,9.7z M6,15h6v6H6V15z M6.3,23h1.9l1.4,5H7.8L6.3,23z"
	/>
</svg>
