<?xml version="1.0" encoding="utf-8"?>
<!-- Generator: Adobe Illustrator 19.0.0, SVG Export Plug-In . SVG Version: 6.00 Build 0)  -->
<svg version="1.1" id="Capa_1" xmlns="http://www.w3.org/2000/svg" xmlns:xlink="http://www.w3.org/1999/xlink" x="0px" y="0px"
	 viewBox="-89 1483 36 36" style="enable-background:new -89 1483 36 36;" xml:space="preserve">
<style type="text/css">
	.st0{fill:#FFFFFF;}
</style>
<title>bullseye-line</title>
<path class="st0" d="M-81.8,1511.3c1,1,2.1,1.8,3.3,2.5l0.7-1.8c-6.5-3.8-8.7-12-4.9-18.5c3.8-6.5,12-8.7,18.5-4.9s8.7,12,4.9,18.5
	c-1.2,2-2.9,3.7-4.9,4.9l0.7,1.8c7.4-4.2,10-13.5,5.9-21c-4.2-7.4-13.5-10-21-5.9s-10,13.5-5.9,21
	C-83.7,1509.1-82.9,1510.2-81.8,1511.3z"/>
<path class="st0" d="M-65.4,1509.1c4.8-3.1,6.2-9.5,3.1-14.4c-3.1-4.8-9.5-6.2-14.4-3.1s-6.2,9.5-3.1,14.4c0.8,1.2,1.9,2.3,3.1,3.1
	l0.6-1.5c-4.1-2.8-5.1-8.3-2.3-12.4c2.8-4.1,8.3-5.1,12.4-2.3s5.1,8.3,2.3,12.4c-0.6,0.9-1.4,1.7-2.4,2.3L-65.4,1509.1z"/>
<path class="st0" d="M-68.2,1497.6c1.4,1.4,1.5,3.7,0.2,5.2l0.6,1.6c0.1-0.1,0.1-0.1,0.2-0.2c2.1-2.1,2.1-5.6,0-7.7s-5.6-2.1-7.7,0
	c-2.1,2.1-2.1,5.6,0,7.7c0,0,0,0,0,0l0.2,0.2l0.7-1.6c-1.3-1.7-0.9-4.2,0.8-5.5C-71.6,1496.2-69.6,1496.3-68.2,1497.6z"/>
<path class="st0" d="M-67.5,1510.2c0-0.1,0-0.2-0.1-0.3l-2.5-2.5v-7.3c0-0.5-0.4-1-1-1s-1,0.4-1,1l0,7.4l-2.4,2.4
	c-0.1,0.1-0.1,0.2-0.1,0.3v7.6c0,0.3,0.2,0.5,0.5,0.5c0.1,0,0.2,0,0.3-0.1l2.7-2.7l2.7,2.7c0.2,0.2,0.5,0.2,0.7,0
	c0.1-0.1,0.1-0.2,0.1-0.3L-67.5,1510.2z"/>
</svg>
