<svg version="1.1" id="Capa_1" xmlns="http://www.w3.org/2000/svg" x="0px" y="0px"
     viewBox="-99 1493 16 16" style="enable-background:new -99 1493 16 16;" xml:space="preserve">
<g>
	<path class="st0" d="M-90.7,1495.2c-0.2-0.1-0.5-0.1-0.7,0l-6.5,3.3l6.6,3.3c0.2,0.1,0.4,0.1,0.7,0l6.6-3.3L-90.7,1495.2z
		 M-83.5,1498c0.2,0.1,0.3,0.2,0.3,0.4c0,0.2-0.1,0.3-0.3,0.4l-6.9,3.5c-0.2,0.1-0.4,0.2-0.6,0.2s-0.4,0-0.6-0.1l-6.9-3.5
		c-0.2-0.1-0.3-0.3-0.3-0.4s0.1-0.4,0.3-0.5l6.9-3.4c0.4-0.2,0.8-0.2,1.2,0L-83.5,1498z M-83.8,1498.6L-83.8,1498.6L-83.8,1498.6z"
    />
</g>
    <g>
	<path class="st0" d="M-85.6,1502.8l1.6,0.8c0.1,0,0.1,0.1,0.1,0.1s0,0.1-0.1,0.1l-6.6,3.3c-0.1,0.1-0.3,0.1-0.4,0.1s-0.3,0-0.4-0.1
		l-6.6-3.3c-0.1,0-0.1-0.1-0.1-0.1s0-0.1,0.1-0.1l1.6-0.8l4.6,2.3c0.2,0.1,0.5,0.2,0.8,0.2s0.5-0.1,0.8-0.2L-85.6,1502.8
		 M-85.6,1502.1l-0.3,0.1l-4.6,2.3c-0.2,0.1-0.3,0.1-0.5,0.1s-0.3,0-0.5-0.1l-4.6-2.3l-0.3-0.1l-0.2,0.1l-1.7,0.8
		c-0.3,0.1-0.4,0.4-0.4,0.7c0,0.3,0.2,0.5,0.4,0.7l6.6,3.3c0.2,0.1,0.5,0.2,0.7,0.2s0.5-0.1,0.7-0.2l6.6-3.3
		c0.3-0.1,0.4-0.4,0.4-0.7c0-0.3-0.2-0.5-0.4-0.7l-1.6-0.8L-85.6,1502.1L-85.6,1502.1z"/>
</g>
    <g>
	<path class="st0" d="M-85.6,1500l1.6,0.9c0.1,0,0.1,0.1,0.1,0.1s0,0.1-0.1,0.1l-6.6,3.3c-0.1,0.1-0.3,0.1-0.4,0.1
		c-0.2,0-0.3,0-0.4-0.1l-6.6-3.3c-0.1,0-0.1-0.1-0.1-0.1s0-0.1,0.1-0.1l1.6-0.9l4.6,2.3c0.3,0.2,0.5,0.2,0.8,0.2s0.5-0.1,0.8-0.2
		L-85.6,1500 M-85.4,1499.5h-0.5l-4.6,2.3c-0.2,0.1-0.3,0.1-0.5,0.1s-0.3,0-0.5-0.1l-4.6-2.3h-0.5l-1.7,0.8
		c-0.2,0.2-0.4,0.4-0.4,0.7s0.2,0.5,0.4,0.7l6.6,3.3c0.2,0.1,0.5,0.2,0.7,0.2s0.5-0.1,0.7-0.2l6.6-3.3c0.3-0.1,0.4-0.4,0.4-0.7
		s-0.2-0.5-0.4-0.7L-85.4,1499.5L-85.4,1499.5z"/>
</g>
    <g>
	<circle class="st0" cx="-87.6" cy="1496.5" r="0.3"/>
</g>
</svg>
