<?xml version="1.0" encoding="utf-8"?>
<!-- Generator: Adobe Illustrator 19.0.0, SVG Export Plug-In . SVG Version: 6.00 Build 0)  -->
<svg version="1.1" id="Capa_1" xmlns="http://www.w3.org/2000/svg" xmlns:xlink="http://www.w3.org/1999/xlink" x="0px" y="0px"
	 viewBox="-89 1483 36 36" style="enable-background:new -89 1483 36 36;" xml:space="preserve">
<style type="text/css">
	.st0{fill:#FFFFFF;}
</style>
<g>
	<path class="st0" d="M-63,1512.3H-79c-1.9,0-3.4-1.5-3.4-3.4V1493c0-1.9,1.5-3.4,3.4-3.4H-63c1.9,0,3.4,1.5,3.4,3.4v15.9
		C-59.6,1510.8-61.1,1512.3-63,1512.3z M-79,1490.9c-1.1,0-2,0.9-2,2v15.9c0,1.1,0.9,2,2,2H-63c1.1,0,2-0.9,2-2v-15.9
		c0-1.1-0.9-2-2-2H-79z"/>
</g>
<g>
	<g>
		<path class="st0" d="M-56.7,1510.8c-0.4,0-0.8-0.3-0.8-0.8v-18.2c0-0.4,0.3-0.8,0.8-0.8c0.4,0,0.8,0.3,0.8,0.8v18.2
			C-55.9,1510.5-56.3,1510.8-56.7,1510.8z"/>
	</g>
	<g>
		<path class="st0" d="M-54.2,1509c-0.4,0-0.8-0.3-0.8-0.8v-14.7c0-0.4,0.3-0.8,0.8-0.8c0.4,0,0.8,0.3,0.8,0.8v14.7
			C-53.4,1508.7-53.8,1509-54.2,1509z"/>
	</g>
</g>
<g>
	<g>
		<path class="st0" d="M-85.3,1510.8c-0.4,0-0.8-0.3-0.8-0.8v-18.2c0-0.4,0.3-0.8,0.8-0.8c0.4,0,0.8,0.3,0.8,0.8v18.2
			C-84.5,1510.5-84.9,1510.8-85.3,1510.8z"/>
	</g>
	<g>
		<path class="st0" d="M-87.8,1509c-0.4,0-0.8-0.3-0.8-0.8v-14.7c0-0.4,0.3-0.8,0.8-0.8s0.8,0.3,0.8,0.8v14.7
			C-87,1508.7-87.3,1509-87.8,1509z"/>
	</g>
</g>
</svg>
