<?xml version="1.0" encoding="utf-8"?>
<svg version="1.1" id="Capa_1" xmlns="http://www.w3.org/2000/svg" xmlns:xlink="http://www.w3.org/1999/xlink" x="0px" y="0px"
	 viewBox="0 0 80 80" style="enable-background:new 0 0 80 80;" xml:space="preserve">
<style type="text/css">
	.st0{fill:#fff;}
</style>
<g id="XMLID_1_">
	<path id="XMLID_91_" class="st0" d="M68.3,51.5c-1.2,1.5-3,2.5-5,2.6l-1.1,2.3l-2.3,4.8L48,67.7l-0.1,0l-8.1,5.6l-8.1-5.6l-12-6.5
		l-2.3-4.7l-0.1-0.2l-1.1-2.3c-2-0.2-3.8-1.3-4.9-2.8l-0.3,1l1.5,3l4.3,8.8l12.9,7l10.1,7l10.1-7l12.9-7.1l4.1-8.5l1.6-3.3
		L68.3,51.5z M18.6,39.7l0.6-2.2L23.4,22l16.4,21.3L56.3,22l4.3,15.5l0.6,2.2c0.5-0.1,1-0.2,1.6-0.2c0.9,0,1.9,0.2,2.7,0.4L65,37.4
		v0l-5.8-20.2l-1.1-3.7L39.9,37L21.8,13.6l-6.6,23.9l-0.7,2.6c0.9-0.4,1.8-0.6,2.8-0.6C17.7,39.5,18.2,39.6,18.6,39.7z"/>
	<path id="XMLID_88_" class="st0" d="M54.1,62.5C49.8,61.8,38.4,60,36.6,60c-1.8,0-8.2,1.7-10.5,2.3l-0.6-2.2
		c0.9-0.2,8.8-2.4,11.2-2.4c2.3,0,16.3,2.3,17.9,2.5L54.1,62.5z"/>
	<path id="XMLID_83_" class="st0" d="M26.1,43.1c-0.5-1.1-1.2-2.2-2-3.1c-0.9-0.9-1.9-1.6-3-2.1c-0.6-0.3-1.2-0.4-1.8-0.6
		c-0.6-0.1-1.3-0.2-1.9-0.2c-0.7,0-1.4,0.1-2.1,0.2c-0.6,0.1-1.1,0.3-1.7,0.5c-1.1,0.5-2.2,1.2-3.1,2.1s-1.6,1.9-2,3.1
		c-0.5,1.2-0.8,2.4-0.8,3.7c0,1.3,0.3,2.5,0.8,3.7c0.5,1.1,1.2,2.2,2,3c0.6,0.6,1.4,1.2,2.2,1.6c0.3,0.2,0.6,0.6,0.9,0.7
		c1.2,0.5,2.4,1,3.7,1h0.2c1.2,0,2.4-0.6,3.5-1c1.1-0.5,2.2-1.3,3-2.2c0.9-0.9,1.6-2,2-3.1c0.5-1.2,0.8-2.5,0.8-3.8
		C26.8,45.6,26.6,44.3,26.1,43.1z M17.3,54.1c-0.3,0-0.6,0-0.9-0.1c-2-0.2-3.8-1.3-4.9-2.8C10.5,50,10,48.5,10,46.8
		c0-3.1,1.9-5.7,4.5-6.8c0.9-0.4,1.8-0.6,2.8-0.6c0.4,0,0.9,0,1.3,0.1c3.4,0.6,6,3.6,6,7.2C24.6,50.9,21.3,54.1,17.3,54.1z"/>
	<g id="XMLID_80_">
		<circle id="XMLID_81_" class="st0" cx="15.3" cy="44.6" r="2.2"/>
	</g>
	<path id="XMLID_75_" class="st0" d="M71.6,43.1c-0.5-1.1-1.2-2.2-2-3.1c-0.9-0.9-1.6-1.6-2.8-2.1c-0.6-0.3-1.7-0.5-1.7-0.6v0
		c-1-0.1-1.4-0.2-2-0.2c-0.8,0-1.6,0.1-2.3,0.3c-0.5,0.1-1.1,0.3-1.6,0.5c-1.1,0.5-2.2,1.2-3.1,2.1s-1.6,1.9-2.1,3.1
		c-0.5,1.2-0.8,2.4-0.8,3.7c0,1.3,0.2,2.5,0.7,3.7c0.5,1.1,1.2,2.2,2,3c0.9,0.9,1.9,1.6,3,2c1,0.4,2.1,0.7,3.2,0.7
		c0.2,0,0.3,0,0.5,0c1.3,0,2.5-0.3,3.7-0.8c0.2-0.1,0.3-0.1,0.5-0.2c1-0.5,1.8-1.1,2.6-1.8c0.9-0.9,1.6-1.9,2-3
		c0.5-1.2,0.7-2.4,0.7-3.7C72.3,45.5,72.1,44.3,71.6,43.1z M68.3,51.5c-1.2,1.5-3,2.5-5,2.6c-0.2,0-0.4,0-0.6,0
		c-4,0-7.3-3.3-7.3-7.3c0-3.5,2.5-6.4,5.7-7.1c0.5-0.1,0.9-0.2,1.5-0.2c0.9,0,2.4,0.2,2.4,0.4v0c3,1,4.9,3.7,4.9,6.9
		C69.9,48.6,69.4,50.2,68.3,51.5z"/>
	<g id="XMLID_72_">
		<circle id="XMLID_73_" class="st0" cx="64.7" cy="44.6" r="2.2"/>
	</g>
	<g id="XMLID_66_">
		<g id="XMLID_69_">
			<circle id="XMLID_70_" class="st0" cx="36.6" cy="52.3" r="1.1"/>
		</g>
		<g id="XMLID_67_">
			<circle id="XMLID_68_" class="st0" cx="43.4" cy="52.3" r="1.1"/>
		</g>
	</g>
	<g id="XMLID_61_">
		<g id="XMLID_64_">
			<polygon id="XMLID_65_" class="st0" points="19.3,18 13.7,36.7 10.7,32.6 15,18 			"/>
		</g>
		<g id="XMLID_62_">
			<polygon id="XMLID_63_" class="st0" points="60.7,18 66.3,36.7 69.3,32.6 65,18 			"/>
		</g>
	</g>
	<g id="XMLID_59_">
		<path id="XMLID_60_" class="st0" d="M18.5,19.9l-2.2-0.7c0.8-2.5,2-4.8,3.6-6.9c1.5-2.1,3.4-3.9,5.4-5.4c2.1-1.5,4.4-2.7,6.9-3.5
			c2.5-0.8,5.2-1.3,7.9-1.3c5.2,0,10.2,1.6,14.5,4.6c2,1.4,3.9,3.2,5.4,5.1c1.5,2,2.8,4.2,3.7,6.6l-2.1,0.8
			C58.2,10.3,49.6,4.3,40.1,4.3C30.3,4.3,21.6,10.6,18.5,19.9z"/>
	</g>
</g>
</svg>
