<?xml version="1.0" encoding="utf-8"?>
<svg version="1.1" id="Capa_1" xmlns="http://www.w3.org/2000/svg" xmlns:xlink="http://www.w3.org/1999/xlink" x="0px" y="0px"
	 viewBox="-89 1483 36 36" style="enable-background:new -89 1483 36 36;" xml:space="preserve">
<style type="text/css">
	.st0{fill:#FFFFFF;}
</style>
<title>play-line</title>
<path class="st0" d="M-75.6,1508.7c-0.6,0-1.2-0.5-1.2-1.2v-13.2c0-0.6,0.5-1.2,1.2-1.2c0.2,0,0.4,0,0.5,0.1l13.2,6.6
	c0.6,0.3,0.8,1,0.5,1.6c-0.1,0.2-0.3,0.4-0.5,0.5l-13.2,6.6C-75.2,1508.7-75.4,1508.8-75.6,1508.7z M-75.6,1494.4L-75.6,1494.4
	l0,13.2l0.1,0l13.2-6.6c0,0,0,0,0,0L-75.6,1494.4z"/>
<g>
	<path class="st0" d="M-71,1518.3c-9.5,0-17.3-7.8-17.3-17.3s7.8-17.3,17.3-17.3s17.3,7.8,17.3,17.3S-61.5,1518.3-71,1518.3z
		 M-71,1484.7c-9,0-16.3,7.3-16.3,16.3c0,9,7.3,16.3,16.3,16.3c9,0,16.3-7.3,16.3-16.3C-54.7,1492-62,1484.7-71,1484.7z"/>
</g>
</svg>
