<?xml version="1.0" encoding="utf-8"?>
<!-- Generator: Adobe Illustrator 25.4.0, SVG Export Plug-In . SVG Version: 6.00 Build 0)  -->
<svg version="1.1" id="Capa_1" xmlns="http://www.w3.org/2000/svg" xmlns:xlink="http://www.w3.org/1999/xlink" x="0px" y="0px"
	 viewBox="0 0 36 36" style="enable-background:new 0 0 36 36;" xml:space="preserve">
<path d="M2.2,19.1c-0.7,0.8-0.7,2,0.1,2.8l9.2,9.2l0,0c0.7,0.8,1.9,0.8,2.7,0L3.7,20.5L19.3,5h-2.1c-0.5,0-1,0.2-1.4,0.5L2.2,19.1
	L2.2,19.1z"/>
<circle cx="27.6" cy="11.1" r="1.3"/>
<path d="M7.6,21.9l9.2,9.2l0,0c0.7,0.8,1.9,0.8,2.7,0l13.6-13.6c0.4-0.4,0.6-0.9,0.6-1.4V6.9c0-1-0.8-1.9-1.9-1.9h-9.2
	c-0.5,0-1,0.2-1.4,0.6L7.6,19.2C6.9,19.9,6.9,21.1,7.6,21.9z M9,20.5L22.6,7h9.1v9.1L18.1,29.7L9,20.5z"/>
</svg>
